<svg fill="#9c36b5" width="8px" height="8px" viewBox="0 0 0.24 0.24" version="1.2" baseProfile="tiny" xmlns="http://www.w3.org/2000/svg">
    <rect x="0.1" y="0.06" width="20%" height="14%" fill="#FFF" />
    <rect x="0.08" y="0.08" width="20%" height="14%" fill="#FFF" />

    <rect x="0.06" y="0.1" width="22%" height="14%" fill="#FFF" />

    <rect x="0.08" y="0.126" width="20%" height="14%" fill="#FFF" />
    <rect x="0.1" y="0.148" width="20%" height="14%" fill="#FFF" />

    <path d="M0.13 0.2a0.03 0.03 0 0 1 -0.021 -0.009L0.038 0.12l0.071 -0.071c0.011 -0.011 0.031 -0.011 0.042 0C0.157 0.054 0.16 0.062 0.16 0.07s-0.003 0.016 -0.009 0.021L0.122 0.12l0.029 0.029c0.006 0.006 0.009 0.013 0.009 0.021s-0.003 0.016 -0.009 0.021A0.03 0.03 0 0 1 0.13 0.2zm-0.064 -0.08 0.057 0.057a0.01 0.01 0 0 0 0.014 0c0.002 -0.002 0.003 -0.004 0.003 -0.007s-0.001 -0.005 -0.003 -0.007L0.094 0.12l0.043 -0.043c0.002 -0.002 0.003 -0.004 0.003 -0.007s-0.001 -0.005 -0.003 -0.007a0.01 0.01 0 0 0 -0.014 0L0.066 0.12z"/>
</svg>